<svg xmlns="http://www.w3.org/2000/svg" xmlns:xlink="http://www.w3.org/1999/xlink" width="250" zoomAndPan="magnify" viewBox="0 0 187.5 187.499992" height="250" preserveAspectRatio="xMidYMid meet" version="1.0"><defs><g/><clipPath id="0878ad10b2"><path d="M 37 4.8125 L 142 4.8125 L 142 18 L 37 18 Z M 37 4.8125 " clip-rule="nonzero"/></clipPath><clipPath id="1e879a52b4"><path d="M 10.578125 127 L 176.261719 127 L 176.261719 147 L 10.578125 147 Z M 10.578125 127 " clip-rule="nonzero"/></clipPath><clipPath id="cd292ace4b"><path d="M 10.578125 33 L 176.261719 33 L 176.261719 124 L 10.578125 124 Z M 10.578125 33 " clip-rule="nonzero"/></clipPath><clipPath id="6016939ff3"><path d="M 51 168 L 136 168 L 136 182.089844 L 51 182.089844 Z M 51 168 " clip-rule="nonzero"/></clipPath></defs><path fill="#5271ff" d="M 148.804688 112.578125 C 149.175781 112.207031 149.382812 111.714844 149.382812 111.179688 C 149.382812 110.644531 149.175781 110.148438 148.804688 109.777344 L 148.023438 108.996094 L 145.21875 111.796875 L 146.003906 112.578125 C 146.375 112.949219 146.867188 113.15625 147.40625 113.15625 C 147.941406 113.15625 148.433594 112.949219 148.804688 112.578125 Z M 148.804688 112.578125 " fill-opacity="1" fill-rule="nonzero"/><path fill="#5271ff" d="M 145.015625 106.027344 L 132.816406 93.828125 C 132.402344 94.324219 131.949219 94.816406 131.453125 95.269531 C 131 95.722656 130.507812 96.175781 130.011719 96.628906 L 142.210938 108.828125 Z M 145.015625 106.027344 " fill-opacity="1" fill-rule="nonzero"/><g clip-path="url(#0878ad10b2)"><path fill="#5271ff" d="M 141.839844 7.15625 C 141.839844 5.921875 140.808594 4.890625 139.574219 4.890625 L 39.878906 4.890625 C 38.644531 4.890625 37.613281 5.921875 37.613281 7.15625 L 37.613281 17.953125 L 141.839844 17.953125 Z M 50.964844 13.214844 C 50.511719 13.667969 49.851562 13.957031 49.152344 13.957031 C 47.75 13.957031 46.597656 12.804688 46.597656 11.402344 C 46.597656 10.703125 46.886719 10.042969 47.339844 9.589844 C 47.792969 9.136719 48.453125 8.847656 49.152344 8.847656 C 49.851562 8.847656 50.511719 9.136719 50.964844 9.589844 C 51.417969 10.042969 51.707031 10.703125 51.707031 11.402344 C 51.707031 12.101562 51.417969 12.761719 50.964844 13.214844 Z M 61.023438 13.214844 C 60.570312 13.667969 59.910156 13.957031 59.207031 13.957031 C 57.808594 13.957031 56.652344 12.804688 56.652344 11.402344 C 56.652344 10.703125 56.941406 10.042969 57.394531 9.589844 C 57.847656 9.136719 58.507812 8.847656 59.207031 8.847656 C 59.910156 8.847656 60.570312 9.136719 61.023438 9.589844 C 61.476562 10.042969 61.765625 10.703125 61.765625 11.402344 C 61.765625 12.101562 61.476562 12.761719 61.023438 13.214844 Z M 71.078125 13.214844 C 70.625 13.667969 69.964844 13.957031 69.265625 13.957031 C 67.863281 13.957031 66.710938 12.804688 66.710938 11.402344 C 66.710938 10.703125 66.996094 10.042969 67.453125 9.589844 C 67.90625 9.136719 68.5625 8.847656 69.265625 8.847656 C 69.964844 8.847656 70.625 9.136719 71.078125 9.589844 C 71.53125 10.042969 71.820312 10.703125 71.820312 11.402344 C 71.820312 12.101562 71.53125 12.761719 71.078125 13.214844 Z M 71.078125 13.214844 " fill-opacity="1" fill-rule="nonzero"/></g><path fill="#000000" d="M 37.613281 87.480469 C 37.613281 88.71875 38.644531 89.746094 39.878906 89.746094 L 87.398438 89.746094 C 85.875 87.191406 84.800781 84.429688 84.183594 81.585938 L 46.101562 81.585938 C 44.949219 81.585938 44 80.640625 44 79.484375 C 44 78.332031 44.949219 77.382812 46.101562 77.382812 L 83.605469 77.382812 C 83.152344 70.625 85.089844 63.699219 89.5 58.097656 L 46.101562 58.097656 C 44.949219 58.097656 44 57.148438 44 55.996094 C 44 54.839844 44.949219 53.890625 46.101562 53.890625 L 93.582031 53.890625 C 98.609375 49.648438 104.914062 47.339844 111.589844 47.339844 C 119.089844 47.339844 126.136719 50.265625 131.453125 55.582031 C 134.09375 58.21875 136.152344 61.3125 137.554688 64.691406 C 138.957031 68.070312 139.65625 71.695312 139.65625 75.445312 C 139.65625 80.558594 138.296875 85.503906 135.742188 89.789062 L 139.574219 89.789062 C 140.808594 89.789062 141.839844 88.757812 141.839844 87.523438 L 141.839844 22.160156 L 37.613281 22.160156 Z M 97.578125 46.308594 L 79.609375 46.308594 C 78.457031 46.308594 77.507812 45.363281 77.507812 44.207031 C 77.507812 43.054688 78.457031 42.105469 79.609375 42.105469 L 97.578125 42.105469 C 98.730469 42.105469 99.679688 43.054688 99.679688 44.207031 C 99.722656 45.363281 98.773438 46.308594 97.578125 46.308594 Z M 96.09375 30.320312 L 133.390625 30.320312 C 134.546875 30.320312 135.492188 31.265625 135.492188 32.421875 C 135.492188 33.574219 134.546875 34.523438 133.390625 34.523438 L 96.09375 34.523438 C 94.941406 34.523438 93.992188 33.574219 93.992188 32.421875 C 93.953125 31.265625 94.898438 30.320312 96.09375 30.320312 Z M 46.101562 30.320312 L 88.675781 30.320312 C 89.828125 30.320312 90.777344 31.265625 90.777344 32.421875 C 90.777344 33.574219 89.828125 34.523438 88.675781 34.523438 L 46.101562 34.523438 C 44.949219 34.523438 44 33.574219 44 32.421875 C 44 31.265625 44.90625 30.320312 46.101562 30.320312 Z M 46.101562 42.0625 L 73.222656 42.0625 C 74.375 42.0625 75.324219 43.011719 75.324219 44.167969 C 75.324219 45.320312 74.375 46.269531 73.222656 46.269531 L 46.101562 46.269531 C 44.949219 46.269531 44 45.320312 44 44.167969 C 44 43.011719 44.90625 42.0625 46.101562 42.0625 Z M 46.101562 65.597656 L 77.835938 65.597656 C 78.992188 65.597656 79.9375 66.542969 79.9375 67.699219 C 79.9375 68.851562 78.992188 69.800781 77.835938 69.800781 L 46.101562 69.800781 C 44.949219 69.800781 44 68.851562 44 67.699219 C 44 66.542969 44.90625 65.597656 46.101562 65.597656 Z M 46.101562 65.597656 " fill-opacity="1" fill-rule="nonzero"/><g clip-path="url(#1e879a52b4)"><path fill="#5271ff" d="M 170.730469 146.828125 C 173.863281 146.828125 176.417969 144.273438 176.417969 141.140625 L 176.417969 127.953125 L 10.578125 127.953125 L 10.578125 141.140625 C 10.578125 144.273438 13.132812 146.828125 16.265625 146.828125 Z M 170.730469 146.828125 " fill-opacity="1" fill-rule="nonzero"/></g><g clip-path="url(#cd292ace4b)"><path fill="#000000" d="M 126.59375 99.144531 C 122.015625 102.027344 116.824219 103.472656 111.589844 103.472656 C 104.378906 103.472656 97.207031 100.75 91.726562 95.269531 C 91.3125 94.859375 90.902344 94.40625 90.488281 93.953125 L 39.878906 93.953125 C 36.292969 93.953125 33.410156 91.023438 33.410156 87.480469 L 33.410156 33.039062 L 16.265625 33.039062 C 13.132812 33.039062 10.578125 35.59375 10.578125 38.726562 L 10.578125 123.75 L 176.417969 123.75 L 176.417969 38.726562 C 176.417969 35.59375 173.863281 33.039062 170.730469 33.039062 L 146.085938 33.039062 L 146.085938 87.480469 C 146.085938 91.066406 143.199219 93.953125 139.613281 93.953125 L 138.914062 93.953125 L 151.773438 106.808594 C 152.925781 107.964844 153.585938 109.53125 153.585938 111.179688 C 153.585938 112.828125 152.925781 114.394531 151.773438 115.546875 C 150.578125 116.699219 149.054688 117.359375 147.40625 117.359375 C 145.757812 117.359375 144.191406 116.699219 143.035156 115.546875 Z M 126.59375 99.144531 " fill-opacity="1" fill-rule="nonzero"/></g><g clip-path="url(#6016939ff3)"><path fill="#5271ff" d="M 67.121094 168.671875 C 59.25 168.671875 52.738281 174.523438 51.707031 182.105469 L 135.289062 182.105469 C 134.257812 174.523438 127.746094 168.671875 119.875 168.671875 Z M 67.121094 168.671875 " fill-opacity="1" fill-rule="nonzero"/></g><path fill="#5271ff" d="M 128.488281 58.507812 C 126.222656 56.242188 123.625 54.511719 120.738281 53.316406 C 117.894531 52.121094 114.804688 51.503906 111.589844 51.503906 C 105.738281 51.503906 100.214844 53.605469 95.847656 57.4375 C 95.476562 57.765625 95.0625 58.136719 94.691406 58.507812 C 89.089844 64.070312 86.863281 71.777344 87.976562 79.03125 C 88.59375 83.152344 90.285156 87.109375 93.085938 90.488281 C 93.582031 91.109375 94.117188 91.683594 94.691406 92.261719 C 103.140625 100.710938 116.328125 101.492188 125.644531 94.652344 C 126.632812 93.953125 127.539062 93.128906 128.445312 92.261719 C 129.3125 91.394531 130.09375 90.449219 130.835938 89.460938 C 133.804688 85.378906 135.453125 80.515625 135.453125 75.363281 C 135.453125 69.019531 132.980469 63 128.488281 58.507812 Z M 100.792969 86.164062 C 97.90625 83.277344 96.339844 79.445312 96.339844 75.363281 C 96.339844 71.285156 97.949219 67.453125 100.792969 64.609375 C 103.761719 61.640625 107.675781 60.15625 111.589844 60.15625 C 115.503906 60.15625 119.378906 61.640625 122.347656 64.609375 C 128.28125 70.542969 128.28125 80.226562 122.347656 86.164062 C 116.414062 92.097656 106.769531 92.097656 100.792969 86.164062 Z M 100.792969 86.164062 " fill-opacity="1" fill-rule="nonzero"/><path fill="#5271ff" d="M 83.070312 151.074219 L 103.925781 151.074219 L 103.925781 164.46875 L 83.070312 164.46875 Z M 83.070312 151.074219 " fill-opacity="1" fill-rule="nonzero"/><g fill="#ffffff" fill-opacity="1"><g transform="translate(24.570979, 114.826981)"><g><path d="M 0.296875 0 L 1.953125 -17.140625 L 7.765625 -17.140625 L 9.390625 0 L 6.140625 0 L 5.90625 -2.78125 L 3.828125 -2.78125 L 3.625 0 Z M 4.09375 -5.5 L 5.640625 -5.5 L 4.890625 -14.21875 L 4.734375 -14.21875 Z M 4.09375 -5.5 "/></g></g></g><g fill="#ffffff" fill-opacity="1"><g transform="translate(34.244223, 114.826981)"><g><path d="M 4.828125 0.15625 C 3.273438 0.15625 2.148438 -0.226562 1.453125 -1 C 0.765625 -1.769531 0.421875 -3.015625 0.421875 -4.734375 L 0.421875 -6.40625 L 3.796875 -6.40625 L 3.796875 -4.265625 C 3.796875 -3.421875 4.066406 -3 4.609375 -3 C 4.910156 -3 5.117188 -3.085938 5.234375 -3.265625 C 5.359375 -3.441406 5.421875 -3.742188 5.421875 -4.171875 C 5.421875 -4.734375 5.351562 -5.195312 5.21875 -5.5625 C 5.09375 -5.925781 4.925781 -6.226562 4.71875 -6.46875 C 4.507812 -6.71875 4.140625 -7.101562 3.609375 -7.625 L 2.140625 -9.09375 C 0.992188 -10.21875 0.421875 -11.457031 0.421875 -12.8125 C 0.421875 -14.269531 0.753906 -15.378906 1.421875 -16.140625 C 2.097656 -16.910156 3.082031 -17.296875 4.375 -17.296875 C 5.914062 -17.296875 7.023438 -16.882812 7.703125 -16.0625 C 8.378906 -15.25 8.71875 -13.972656 8.71875 -12.234375 L 5.234375 -12.234375 L 5.203125 -13.40625 C 5.203125 -13.632812 5.140625 -13.8125 5.015625 -13.9375 C 4.890625 -14.070312 4.710938 -14.140625 4.484375 -14.140625 C 4.222656 -14.140625 4.023438 -14.066406 3.890625 -13.921875 C 3.753906 -13.773438 3.6875 -13.578125 3.6875 -13.328125 C 3.6875 -12.765625 4.007812 -12.1875 4.65625 -11.59375 L 6.640625 -9.671875 C 7.109375 -9.222656 7.492188 -8.796875 7.796875 -8.390625 C 8.109375 -7.984375 8.351562 -7.503906 8.53125 -6.953125 C 8.71875 -6.398438 8.8125 -5.742188 8.8125 -4.984375 C 8.8125 -3.296875 8.503906 -2.015625 7.890625 -1.140625 C 7.273438 -0.273438 6.253906 0.15625 4.828125 0.15625 Z M 4.828125 0.15625 "/></g></g></g><g fill="#ffffff" fill-opacity="1"><g transform="translate(43.438789, 114.826981)"><g><path d="M 4.828125 0.15625 C 3.273438 0.15625 2.148438 -0.226562 1.453125 -1 C 0.765625 -1.769531 0.421875 -3.015625 0.421875 -4.734375 L 0.421875 -6.40625 L 3.796875 -6.40625 L 3.796875 -4.265625 C 3.796875 -3.421875 4.066406 -3 4.609375 -3 C 4.910156 -3 5.117188 -3.085938 5.234375 -3.265625 C 5.359375 -3.441406 5.421875 -3.742188 5.421875 -4.171875 C 5.421875 -4.734375 5.351562 -5.195312 5.21875 -5.5625 C 5.09375 -5.925781 4.925781 -6.226562 4.71875 -6.46875 C 4.507812 -6.71875 4.140625 -7.101562 3.609375 -7.625 L 2.140625 -9.09375 C 0.992188 -10.21875 0.421875 -11.457031 0.421875 -12.8125 C 0.421875 -14.269531 0.753906 -15.378906 1.421875 -16.140625 C 2.097656 -16.910156 3.082031 -17.296875 4.375 -17.296875 C 5.914062 -17.296875 7.023438 -16.882812 7.703125 -16.0625 C 8.378906 -15.25 8.71875 -13.972656 8.71875 -12.234375 L 5.234375 -12.234375 L 5.203125 -13.40625 C 5.203125 -13.632812 5.140625 -13.8125 5.015625 -13.9375 C 4.890625 -14.070312 4.710938 -14.140625 4.484375 -14.140625 C 4.222656 -14.140625 4.023438 -14.066406 3.890625 -13.921875 C 3.753906 -13.773438 3.6875 -13.578125 3.6875 -13.328125 C 3.6875 -12.765625 4.007812 -12.1875 4.65625 -11.59375 L 6.640625 -9.671875 C 7.109375 -9.222656 7.492188 -8.796875 7.796875 -8.390625 C 8.109375 -7.984375 8.351562 -7.503906 8.53125 -6.953125 C 8.71875 -6.398438 8.8125 -5.742188 8.8125 -4.984375 C 8.8125 -3.296875 8.503906 -2.015625 7.890625 -1.140625 C 7.273438 -0.273438 6.253906 0.15625 4.828125 0.15625 Z M 4.828125 0.15625 "/></g></g></g><g fill="#ffffff" fill-opacity="1"><g transform="translate(52.633355, 114.826981)"><g><path d="M 0.765625 0 L 0.765625 -17.140625 L 7.625 -17.140625 L 7.625 -13.828125 L 4.25 -13.828125 L 4.25 -10.5 L 7.484375 -10.5 L 7.484375 -7.265625 L 4.25 -7.265625 L 4.25 -3.328125 L 7.84375 -3.328125 L 7.84375 0 Z M 0.765625 0 "/></g></g></g><g fill="#ffffff" fill-opacity="1"><g transform="translate(60.850622, 114.826981)"><g><path d="M 2.234375 0 L 2.234375 -13.84375 L 0.203125 -13.84375 L 0.203125 -17.140625 L 7.703125 -17.140625 L 7.703125 -13.84375 L 5.671875 -13.84375 L 5.671875 0 Z M 2.234375 0 "/></g></g></g><g fill="#ffffff" fill-opacity="1"><g transform="translate(71.747902, 120.43702)"><g><path d="M 0.59375 0 L 0.59375 -17.140625 L 3.90625 -17.140625 L 3.90625 0 Z M 0.59375 0 "/></g></g></g><g fill="#ffffff" fill-opacity="1"><g transform="translate(76.275379, 120.43702)"><g><path d="M 0.765625 0 L 0.765625 -17.140625 L 4.296875 -17.140625 L 5.859375 -8.9375 L 5.859375 -17.140625 L 9.171875 -17.140625 L 9.171875 0 L 5.828125 0 L 4.109375 -8.578125 L 4.109375 0 Z M 0.765625 0 "/></g></g></g><g fill="#ffffff" fill-opacity="1"><g transform="translate(86.207901, 120.43702)"><g><path d="M 0.765625 0 L 0.765625 -17.140625 L 7.625 -17.140625 L 7.625 -13.8125 L 4.203125 -13.8125 L 4.203125 -11.078125 L 7.4375 -11.078125 L 7.4375 -7.78125 L 4.203125 -7.78125 L 4.203125 0 Z M 0.765625 0 "/></g></g></g><g fill="#ffffff" fill-opacity="1"><g transform="translate(94.165889, 120.43702)"><g><path d="M 4.84375 0.15625 C 3.46875 0.15625 2.421875 -0.265625 1.703125 -1.109375 C 0.984375 -1.953125 0.625 -3.140625 0.625 -4.671875 L 0.625 -12.828125 C 0.625 -14.304688 0.984375 -15.421875 1.703125 -16.171875 C 2.421875 -16.921875 3.46875 -17.296875 4.84375 -17.296875 C 6.226562 -17.296875 7.28125 -16.921875 8 -16.171875 C 8.71875 -15.421875 9.078125 -14.304688 9.078125 -12.828125 L 9.078125 -4.671875 C 9.078125 -3.128906 8.71875 -1.9375 8 -1.09375 C 7.28125 -0.257812 6.226562 0.15625 4.84375 0.15625 Z M 4.84375 -3 C 5.15625 -3 5.363281 -3.128906 5.46875 -3.390625 C 5.570312 -3.660156 5.625 -4.035156 5.625 -4.515625 L 5.625 -12.890625 C 5.625 -13.265625 5.570312 -13.566406 5.46875 -13.796875 C 5.375 -14.023438 5.175781 -14.140625 4.875 -14.140625 C 4.300781 -14.140625 4.015625 -13.707031 4.015625 -12.84375 L 4.015625 -4.484375 C 4.015625 -3.992188 4.070312 -3.625 4.1875 -3.375 C 4.3125 -3.125 4.53125 -3 4.84375 -3 Z M 4.84375 -3 "/></g></g></g><g fill="#ffffff" fill-opacity="1"><g transform="translate(59.291109, 139.378874)"><g><path d="M 0.828125 0 L 0.828125 -6.40625 L 3.5625 -6.40625 C 3.957031 -6.40625 4.289062 -6.34375 4.5625 -6.21875 C 4.832031 -6.09375 5.035156 -5.914062 5.171875 -5.6875 C 5.316406 -5.457031 5.390625 -5.1875 5.390625 -4.875 C 5.390625 -4.59375 5.320312 -4.34375 5.1875 -4.125 C 5.050781 -3.90625 4.851562 -3.734375 4.59375 -3.609375 L 4.59375 -3.515625 C 5 -3.410156 5.3125 -3.21875 5.53125 -2.9375 C 5.75 -2.65625 5.859375 -2.316406 5.859375 -1.921875 C 5.859375 -1.304688 5.671875 -0.832031 5.296875 -0.5 C 4.929688 -0.164062 4.382812 0 3.65625 0 Z M 3.296875 -3.84375 C 3.890625 -3.84375 4.1875 -4.109375 4.1875 -4.640625 C 4.1875 -4.910156 4.113281 -5.113281 3.96875 -5.25 C 3.820312 -5.382812 3.597656 -5.453125 3.296875 -5.453125 L 2.09375 -5.453125 L 2.09375 -3.84375 Z M 3.53125 -1 C 4.226562 -1 4.578125 -1.316406 4.578125 -1.953125 C 4.578125 -2.585938 4.226562 -2.90625 3.53125 -2.90625 L 2.09375 -2.90625 L 2.09375 -1 Z M 3.53125 -1 "/></g></g><g transform="translate(65.558575, 139.378874)"><g><path d="M 1.890625 0.09375 C 1.578125 0.09375 1.304688 0.0351562 1.078125 -0.078125 C 0.847656 -0.191406 0.671875 -0.359375 0.546875 -0.578125 C 0.429688 -0.796875 0.375 -1.0625 0.375 -1.375 C 0.375 -1.65625 0.429688 -1.894531 0.546875 -2.09375 C 0.671875 -2.289062 0.859375 -2.453125 1.109375 -2.578125 C 1.367188 -2.703125 1.707031 -2.796875 2.125 -2.859375 C 2.414062 -2.910156 2.632812 -2.960938 2.78125 -3.015625 C 2.9375 -3.066406 3.039062 -3.128906 3.09375 -3.203125 C 3.144531 -3.273438 3.171875 -3.363281 3.171875 -3.46875 C 3.171875 -3.625 3.113281 -3.742188 3 -3.828125 C 2.894531 -3.910156 2.71875 -3.953125 2.46875 -3.953125 C 2.195312 -3.953125 1.941406 -3.890625 1.703125 -3.765625 C 1.460938 -3.648438 1.253906 -3.492188 1.078125 -3.296875 L 0.984375 -3.296875 L 0.484375 -4.0625 C 0.722656 -4.332031 1.019531 -4.539062 1.375 -4.6875 C 1.726562 -4.84375 2.113281 -4.921875 2.53125 -4.921875 C 3.164062 -4.921875 3.625 -4.785156 3.90625 -4.515625 C 4.195312 -4.242188 4.34375 -3.859375 4.34375 -3.359375 L 4.34375 -1.265625 C 4.34375 -1.046875 4.441406 -0.9375 4.640625 -0.9375 C 4.710938 -0.9375 4.78125 -0.953125 4.84375 -0.984375 L 4.90625 -0.953125 L 5 -0.109375 C 4.925781 -0.0664062 4.828125 -0.03125 4.703125 0 C 4.585938 0.0195312 4.460938 0.03125 4.328125 0.03125 C 4.035156 0.03125 3.804688 -0.0195312 3.640625 -0.125 C 3.484375 -0.238281 3.367188 -0.414062 3.296875 -0.65625 L 3.203125 -0.65625 C 2.960938 -0.15625 2.523438 0.09375 1.890625 0.09375 Z M 2.265625 -0.8125 C 2.546875 -0.8125 2.769531 -0.90625 2.9375 -1.09375 C 3.101562 -1.28125 3.1875 -1.546875 3.1875 -1.890625 L 3.1875 -2.375 L 3.109375 -2.390625 C 3.035156 -2.328125 2.9375 -2.273438 2.8125 -2.234375 C 2.695312 -2.203125 2.53125 -2.164062 2.3125 -2.125 C 2.050781 -2.082031 1.863281 -2.007812 1.75 -1.90625 C 1.632812 -1.800781 1.578125 -1.648438 1.578125 -1.453125 C 1.578125 -1.242188 1.632812 -1.082031 1.75 -0.96875 C 1.875 -0.863281 2.046875 -0.8125 2.265625 -0.8125 Z M 2.265625 -0.8125 "/></g></g><g transform="translate(70.655821, 139.378874)"><g><path d="M 2.265625 0.09375 C 1.929688 0.09375 1.625 0.0546875 1.34375 -0.015625 C 1.070312 -0.0976562 0.835938 -0.207031 0.640625 -0.34375 C 0.453125 -0.476562 0.3125 -0.632812 0.21875 -0.8125 L 0.890625 -1.53125 L 0.984375 -1.53125 C 1.140625 -1.320312 1.328125 -1.160156 1.546875 -1.046875 C 1.773438 -0.941406 2.015625 -0.890625 2.265625 -0.890625 C 2.503906 -0.890625 2.679688 -0.929688 2.796875 -1.015625 C 2.921875 -1.097656 2.984375 -1.21875 2.984375 -1.375 C 2.984375 -1.5 2.9375 -1.601562 2.84375 -1.6875 C 2.757812 -1.769531 2.625 -1.835938 2.4375 -1.890625 L 1.796875 -2.03125 C 1.316406 -2.144531 0.96875 -2.316406 0.75 -2.546875 C 0.53125 -2.785156 0.421875 -3.085938 0.421875 -3.453125 C 0.421875 -3.753906 0.492188 -4.015625 0.640625 -4.234375 C 0.796875 -4.460938 1.015625 -4.632812 1.296875 -4.75 C 1.578125 -4.863281 1.898438 -4.921875 2.265625 -4.921875 C 2.703125 -4.921875 3.0625 -4.859375 3.34375 -4.734375 C 3.632812 -4.609375 3.859375 -4.441406 4.015625 -4.234375 L 3.375 -3.53125 L 3.28125 -3.53125 C 3.144531 -3.675781 2.992188 -3.785156 2.828125 -3.859375 C 2.660156 -3.929688 2.472656 -3.96875 2.265625 -3.96875 C 1.785156 -3.96875 1.546875 -3.816406 1.546875 -3.515625 C 1.546875 -3.390625 1.585938 -3.285156 1.671875 -3.203125 C 1.765625 -3.128906 1.925781 -3.066406 2.15625 -3.015625 L 2.75 -2.890625 C 3.238281 -2.785156 3.597656 -2.613281 3.828125 -2.375 C 4.054688 -2.144531 4.171875 -1.835938 4.171875 -1.453125 C 4.171875 -1.140625 4.09375 -0.863281 3.9375 -0.625 C 3.78125 -0.394531 3.554688 -0.21875 3.265625 -0.09375 C 2.984375 0.03125 2.648438 0.09375 2.265625 0.09375 Z M 2.265625 0.09375 "/></g></g><g transform="translate(75.113173, 139.378874)"><g><path d="M 1.296875 -5.40625 C 1.078125 -5.40625 0.898438 -5.472656 0.765625 -5.609375 C 0.628906 -5.742188 0.5625 -5.914062 0.5625 -6.125 C 0.5625 -6.332031 0.628906 -6.5 0.765625 -6.625 C 0.898438 -6.757812 1.078125 -6.828125 1.296875 -6.828125 C 1.441406 -6.828125 1.570312 -6.796875 1.6875 -6.734375 C 1.800781 -6.671875 1.890625 -6.585938 1.953125 -6.484375 C 2.015625 -6.378906 2.046875 -6.257812 2.046875 -6.125 C 2.046875 -5.988281 2.015625 -5.863281 1.953125 -5.75 C 1.890625 -5.644531 1.800781 -5.5625 1.6875 -5.5 C 1.570312 -5.4375 1.441406 -5.40625 1.296875 -5.40625 Z M 0.703125 0 L 0.703125 -4.828125 L 1.90625 -4.828125 L 1.90625 0 Z M 0.703125 0 "/></g></g><g transform="translate(77.716582, 139.378874)"><g><path d="M 2.8125 0.09375 C 2.34375 0.09375 1.925781 0 1.5625 -0.1875 C 1.207031 -0.382812 0.929688 -0.671875 0.734375 -1.046875 C 0.535156 -1.429688 0.4375 -1.882812 0.4375 -2.40625 C 0.4375 -2.9375 0.535156 -3.390625 0.734375 -3.765625 C 0.929688 -4.148438 1.207031 -4.4375 1.5625 -4.625 C 1.925781 -4.820312 2.335938 -4.921875 2.796875 -4.921875 C 3.816406 -4.921875 4.46875 -4.550781 4.75 -3.8125 L 3.921875 -3.21875 L 3.828125 -3.21875 C 3.722656 -3.445312 3.59375 -3.613281 3.4375 -3.71875 C 3.28125 -3.832031 3.066406 -3.890625 2.796875 -3.890625 C 2.441406 -3.890625 2.164062 -3.769531 1.96875 -3.53125 C 1.78125 -3.289062 1.6875 -2.914062 1.6875 -2.40625 C 1.6875 -1.914062 1.785156 -1.546875 1.984375 -1.296875 C 2.179688 -1.054688 2.457031 -0.9375 2.8125 -0.9375 C 3.070312 -0.9375 3.289062 -1.003906 3.46875 -1.140625 C 3.65625 -1.285156 3.789062 -1.492188 3.875 -1.765625 L 3.96875 -1.765625 L 4.828125 -1.296875 C 4.703125 -0.890625 4.472656 -0.554688 4.140625 -0.296875 C 3.816406 -0.0351562 3.375 0.09375 2.8125 0.09375 Z M 2.8125 0.09375 "/></g></g><g transform="translate(82.699875, 139.378874)"><g/></g><g transform="translate(84.816788, 139.378874)"><g><path d="M 2.09375 0 L 0.828125 0 L 0.828125 -6.40625 L 2.09375 -6.40625 Z M 2.09375 0 "/></g></g><g transform="translate(87.753293, 139.378874)"><g><path d="M 0.703125 0 L 0.703125 -4.828125 L 1.859375 -4.828125 L 1.859375 -4.125 L 1.953125 -4.09375 C 2.253906 -4.644531 2.742188 -4.921875 3.421875 -4.921875 C 3.972656 -4.921875 4.378906 -4.769531 4.640625 -4.46875 C 4.898438 -4.164062 5.03125 -3.722656 5.03125 -3.140625 L 5.03125 0 L 3.828125 0 L 3.828125 -2.984375 C 3.828125 -3.304688 3.757812 -3.535156 3.625 -3.671875 C 3.5 -3.816406 3.296875 -3.890625 3.015625 -3.890625 C 2.660156 -3.890625 2.382812 -3.773438 2.1875 -3.546875 C 2 -3.328125 1.90625 -2.976562 1.90625 -2.5 L 1.90625 0 Z M 0.703125 0 "/></g></g></g><g fill="#ffffff" fill-opacity="1"><g transform="translate(93.35895, 139.378874)"><g><path d="M 3.328125 0 L 1.875 0 L 0.09375 -4.828125 L 1.359375 -4.828125 L 2.5625 -1.390625 L 2.65625 -1.390625 L 3.859375 -4.828125 L 5.109375 -4.828125 Z M 3.328125 0 "/></g></g></g><g fill="#ffffff" fill-opacity="1"><g transform="translate(98.464962, 139.378874)"><g><path d="M 4.765625 -2.140625 L 1.671875 -2.140625 C 1.703125 -1.722656 1.816406 -1.414062 2.015625 -1.21875 C 2.222656 -1.03125 2.503906 -0.9375 2.859375 -0.9375 C 3.140625 -0.9375 3.363281 -0.988281 3.53125 -1.09375 C 3.707031 -1.195312 3.847656 -1.351562 3.953125 -1.5625 L 4.046875 -1.5625 L 4.859375 -1.046875 C 4.691406 -0.703125 4.445312 -0.425781 4.125 -0.21875 C 3.8125 -0.0078125 3.390625 0.09375 2.859375 0.09375 C 2.359375 0.09375 1.925781 0 1.5625 -0.1875 C 1.207031 -0.382812 0.929688 -0.671875 0.734375 -1.046875 C 0.535156 -1.421875 0.4375 -1.875 0.4375 -2.40625 C 0.4375 -2.957031 0.539062 -3.421875 0.75 -3.796875 C 0.957031 -4.171875 1.234375 -4.453125 1.578125 -4.640625 C 1.929688 -4.828125 2.332031 -4.921875 2.78125 -4.921875 C 3.457031 -4.921875 3.976562 -4.738281 4.34375 -4.375 C 4.707031 -4.019531 4.890625 -3.488281 4.890625 -2.78125 C 4.890625 -2.53125 4.878906 -2.332031 4.859375 -2.1875 Z M 3.734375 -2.921875 C 3.722656 -3.296875 3.632812 -3.566406 3.46875 -3.734375 C 3.3125 -3.898438 3.082031 -3.984375 2.78125 -3.984375 C 2.164062 -3.984375 1.800781 -3.628906 1.6875 -2.921875 Z M 3.734375 -2.921875 "/></g></g><g transform="translate(103.719991, 139.378874)"><g><path d="M 0.703125 0 L 0.703125 -4.828125 L 1.859375 -4.828125 L 1.859375 -4.125 L 1.953125 -4.09375 C 2.253906 -4.644531 2.742188 -4.921875 3.421875 -4.921875 C 3.972656 -4.921875 4.378906 -4.769531 4.640625 -4.46875 C 4.898438 -4.164062 5.03125 -3.722656 5.03125 -3.140625 L 5.03125 0 L 3.828125 0 L 3.828125 -2.984375 C 3.828125 -3.304688 3.757812 -3.535156 3.625 -3.671875 C 3.5 -3.816406 3.296875 -3.890625 3.015625 -3.890625 C 2.660156 -3.890625 2.382812 -3.773438 2.1875 -3.546875 C 2 -3.328125 1.90625 -2.976562 1.90625 -2.5 L 1.90625 0 Z M 0.703125 0 "/></g></g></g><g fill="#ffffff" fill-opacity="1"><g transform="translate(109.347562, 139.378874)"><g><path d="M 3.328125 -1.15625 L 3.640625 -0.25 C 3.515625 -0.144531 3.351562 -0.0625 3.15625 0 C 2.957031 0.0625 2.734375 0.09375 2.484375 0.09375 C 1.953125 0.09375 1.550781 -0.046875 1.28125 -0.328125 C 1.007812 -0.617188 0.875 -1.035156 0.875 -1.578125 L 0.875 -3.875 L 0.140625 -3.875 L 0.140625 -4.828125 L 0.875 -4.828125 L 0.875 -5.78125 L 2.09375 -5.96875 L 2.09375 -4.828125 L 3.46875 -4.828125 L 3.46875 -3.875 L 2.09375 -3.875 L 2.09375 -1.671875 C 2.09375 -1.429688 2.140625 -1.253906 2.234375 -1.140625 C 2.335938 -1.035156 2.484375 -0.984375 2.671875 -0.984375 C 2.890625 -0.984375 3.078125 -1.039062 3.234375 -1.15625 Z M 3.328125 -1.15625 "/></g></g></g><g fill="#ffffff" fill-opacity="1"><g transform="translate(113.046682, 139.378874)"><g><path d="M 2.8125 0.09375 C 2.332031 0.09375 1.914062 0 1.5625 -0.1875 C 1.207031 -0.382812 0.929688 -0.671875 0.734375 -1.046875 C 0.535156 -1.421875 0.4375 -1.875 0.4375 -2.40625 C 0.4375 -2.9375 0.535156 -3.390625 0.734375 -3.765625 C 0.929688 -4.148438 1.207031 -4.4375 1.5625 -4.625 C 1.914062 -4.820312 2.332031 -4.921875 2.8125 -4.921875 C 3.28125 -4.921875 3.691406 -4.820312 4.046875 -4.625 C 4.410156 -4.4375 4.691406 -4.148438 4.890625 -3.765625 C 5.085938 -3.390625 5.1875 -2.9375 5.1875 -2.40625 C 5.1875 -1.875 5.085938 -1.421875 4.890625 -1.046875 C 4.691406 -0.671875 4.410156 -0.382812 4.046875 -0.1875 C 3.691406 0 3.28125 0.09375 2.8125 0.09375 Z M 2.8125 -0.9375 C 3.5625 -0.9375 3.9375 -1.425781 3.9375 -2.40625 C 3.9375 -2.914062 3.835938 -3.289062 3.640625 -3.53125 C 3.453125 -3.769531 3.175781 -3.890625 2.8125 -3.890625 C 2.0625 -3.890625 1.6875 -3.394531 1.6875 -2.40625 C 1.6875 -1.425781 2.0625 -0.9375 2.8125 -0.9375 Z M 2.8125 -0.9375 "/></g></g><g transform="translate(118.665487, 139.378874)"><g><path d="M 0.703125 0 L 0.703125 -4.828125 L 1.875 -4.828125 L 1.875 -4.109375 L 1.96875 -4.09375 C 2.082031 -4.363281 2.234375 -4.5625 2.421875 -4.6875 C 2.609375 -4.8125 2.84375 -4.875 3.125 -4.875 C 3.394531 -4.875 3.601562 -4.828125 3.75 -4.734375 L 3.53125 -3.6875 L 3.453125 -3.671875 C 3.367188 -3.703125 3.289062 -3.722656 3.21875 -3.734375 C 3.144531 -3.753906 3.054688 -3.765625 2.953125 -3.765625 C 2.609375 -3.765625 2.347656 -3.644531 2.171875 -3.40625 C 1.992188 -3.164062 1.90625 -2.785156 1.90625 -2.265625 L 1.90625 0 Z M 0.703125 0 "/></g></g></g><g fill="#ffffff" fill-opacity="1"><g transform="translate(122.518006, 139.378874)"><g><path d="M 1.0625 2.046875 C 0.851562 2.046875 0.664062 2.03125 0.5 2 C 0.332031 1.96875 0.195312 1.925781 0.09375 1.875 L 0.28125 0.890625 L 0.375 0.859375 C 0.445312 0.898438 0.535156 0.929688 0.640625 0.953125 C 0.742188 0.984375 0.851562 1 0.96875 1 C 1.164062 1 1.328125 0.972656 1.453125 0.921875 C 1.585938 0.867188 1.695312 0.78125 1.78125 0.65625 C 1.875 0.539062 1.957031 0.378906 2.03125 0.171875 L 0.109375 -4.828125 L 1.375 -4.828125 L 2.578125 -1.46875 L 2.6875 -1.46875 L 3.84375 -4.828125 L 5.078125 -4.828125 L 3.140625 0.296875 C 2.984375 0.710938 2.8125 1.046875 2.625 1.296875 C 2.445312 1.554688 2.226562 1.742188 1.96875 1.859375 C 1.71875 1.984375 1.414062 2.046875 1.0625 2.046875 Z M 1.0625 2.046875 "/></g></g></g></svg>